<svg xmlns="http://www.w3.org/2000/svg" viewBox="0 0 275.11 300"><defs><style>.cls-1{fill:#fff;}.cls-2{fill:#ffcd00;}</style></defs><title>Asset 1</title><g id="Layer_2" data-name="Layer 2"><g id="Layer_1-2" data-name="Layer 1"><path class="cls-1" d="M243.36,224.77c-4-10.17-49.73-127.14-58.44-149.37H195V0H69.48V75.4H79.56C71.45,96.12,25.73,213,21.12,224.77H0v75.07H114.66V224.77H103.8c.36-1.21,1.61-5.39,1.85-6.18h53.18c.24.79,1.5,5,1.86,6.18h-11v75.07h114.8V224.77ZM135.55,142.43h-6.93l3.46-8.92Z"/><path class="cls-2" d="M110.78,154.63h42.61L132.08,99.81ZM123,146.24l9-23.26,9,23.26Zm117.72,82.34c-3.83-9.78-52.92-135.28-61.43-157h11.9V3.81H73.3V71.58H85.15c-7.79,19.91-57,145.69-61.43,157H3.81V296h107V228.58H98.67c.75-2.51,3.64-12.15,4.14-13.8h58.86c.5,1.65,3.39,11.29,4.14,13.8H153.49V296H260.66V228.58Zm11.5,59.06H161.88V237h15.24c-1.23-4-8.41-28-9.21-30.59H96.57c-.78,2.58-8,26.6-9.2,30.59h15.08v50.67H12.21V237H29.45c3.1-7.9,61.77-157.86,68-173.78H81.69v-51H182.84v51H167c6.73,17.18,65.2,166.65,68,173.78h17.23Z"/><path d="M105.2,158.45H159L132.08,89.28ZM248.45,283.82H165.69v-43h16.63c-.75-1.89-11.24-37.34-11.6-38.22h-77c-.35.88-10.84,36.33-11.6,38.22H98.64v43H16v-43h16c.37-.93,70.17-179.39,71-181.42H85.5V16H179V59.37H161.44c.82,2,70.62,180.49,71,181.42h16Z"/><path class="cls-1" d="M148.13,169.46a1.88,1.88,0,1,1,1.88,2A1.94,1.94,0,0,1,148.13,169.46Zm49.16,10.08c0,1.5-.09,6.66-.09,9.09s-.57,5.06-2.54,5.06a6.56,6.56,0,0,1-3.74-1.59s-3.1.94-4.6-.28-1.87-3-1.4-6.19l.46-3.18-.93-.28s-1.32,8.15-5.32,10.4c-1,.55-4.27,1.15-5.86-3.22a12.27,12.27,0,0,1-2,2.37,4,4,0,0,1-5.78-1.64c-2.47,2.62-4.88,1.46-5.61-.45-.81-2.12-.56-5.06-.5-6.93s-1.94-.69-2,.31-.25,3.56-.62,6.87c-.26,2.24-.75,2.94-1.69,2.38a2.85,2.85,0,0,1-1.25-2,4.19,4.19,0,0,1-3.07,1.36,2.54,2.54,0,0,1-2.12-1.77,5.39,5.39,0,0,1-4.92.23s-2.86,3-4.53,1.2a6,6,0,0,1-1.14-2.41,7,7,0,0,1-2.53,3c-1.74.94-3.06.06-4.12-2.57a7.32,7.32,0,0,1-.42-1.87c-2.69,3.6-5.54,3.32-6.33,1.25s-.56-5.06-.5-6.93-1.94-.69-2,.31-.25,3.56-.63,6.87c-.25,2.24-.74,2.94-1.68,2.38a2.87,2.87,0,0,1-1.26-2.07,6.74,6.74,0,0,1-3.92,2.25c-1.1.08-1.89-.82-2.34-2-.83.88-2,2-3,1.94-2.1-.07-2.9-2.53-2.9-4.05v-4.2a3.56,3.56,0,0,1-3.61,1.52v2.46c0,3.76-1.52,5.28-4.12,4.05A5.17,5.17,0,0,1,96.11,188c-.3,1.19-1.16,3.73-3,3.73-2.46,0-3.54-3.11-3.54-6.86v-9.19c0-1.22-.65-2.38-1.74-.72a6.06,6.06,0,0,0-1.3,3.76V188a2.58,2.58,0,0,1-2.67,2.82c-1.67,0-2-.93-2-3.76v-10c0-1.3-.79-3.47-1.8-1.16a15.31,15.31,0,0,0-1.52,5.93v6.43c0,1.09-.15,2.68-1.81,2.68s-2.53-.8-2.53-4.12v-9.47c0-3.39.44-5.13-.14-5.42s-1.59.36-5.64,4.26l-1.44-1.59s5.78-4.91,7.88-6.57,5.27-1.45,5.7,1.52c0,0,1.68-2.28,3.26-2.46,2.45-.29,2.74,4.62,2.74,4.62l3.11-4c1.88-2.46,4.12-1.81,4.12,1.51s-.51,12.36-.65,15.25c-.13,2.63,1.34,4.41,2.7,2.16a7.68,7.68,0,0,1-.1-1.22v-7c0-5.71,3.74-6,5.06-5.34,1.8.94,2.09,3,2.09,5.27,0,3.18,1.12,3.72,2,3.11a9.16,9.16,0,0,0,1.66-1.61V175.3c0-2,1.52-2,2.17-1.3s.51,1.44.51,2.74v8.67c0,3,.94,3.33,1.66,3a3.16,3.16,0,0,0,1.06-1.43,75.67,75.67,0,0,1,.53-11.07c.44-1.81,1.46-2.12,2.16-1.6s.59,1.82.51,2.9-.43,3.11-.72,6.65.18,5.07,1.52,4.84c.81-.14,2-1.8,2.48-2.6,0-2.87.44-6.87.69-9.36.31-3.19,1.6-3.13,2.43-2.69s.75,2.5.75,2.5a17.56,17.56,0,0,1,3.06-2.94c1.44-.93,1.88.13,1.82,1.69s-.19,5.87-.19,8.75.68,3.19,1.81,2.37a9.31,9.31,0,0,0,2.13-3.12c.05-2.39.23-4.91.29-6.72-1,0-2,0-2.61.1-1.37.12-.94-1.06.07-1.13.85,0,1.63-.37,2.58-.46.1-3.16.41-6,.41-8,0-2.19,1.28-1.75,2.07-1.38,1.06.5.93,1.06.68,3-.11.87-.34,3.37-.55,6.28a5.11,5.11,0,0,1,2.05.28c1.5.44,0,1.25-1.18,1.25h-1c-.22,3.15-.4,6.51-.4,8.69,0,4.62,1.69,4.56,2.63,3.56a6.47,6.47,0,0,0,1.31-2.56l.52,1.07a23.73,23.73,0,0,1,.23-7.35c1.06-6.36,3.71-6.27,4.52-6a5.07,5.07,0,0,1,2,1.88,4.15,4.15,0,0,0,1.45,1.11c.51.21.26.68,0,1.92s-.47,4-.68,6.19.51,3.29,1.28,3.2a3.71,3.71,0,0,0,1.48-.69c-.22-2-.16-5.45-.16-8.35,0-3.29.9-4.14,2.22-3.93.82.12,1.07,1.41.86,2.82a65.29,65.29,0,0,0-.48,7.5c-.08,3.67,1.24,3.89,1.88,3.42a7,7,0,0,0,1.2-1.27v-.05a97.5,97.5,0,0,1,.69-10c.31-3.19,1.6-3.13,2.43-2.69s.75,2.5.75,2.5a17.38,17.38,0,0,1,3.07-2.94c1.43-.93,1.87.13,1.81,1.69s-.19,5.88-.19,8.75.59,4.15,1.71,3.34a3.48,3.48,0,0,0,.73-.75,20.22,20.22,0,0,1-.46-4.56c0-6.66,3-11.15,6.15-9.65s3.62,9.31-2.78,13.47c.29,2.07.88,3.42,1.86,3.56,1.4.2,2.47-1.23,3.46-2.94a22.85,22.85,0,0,1-.39-4.44c0-6.66,3-11.15,6.19-9.65s3.28,9.18-2.78,13.47c.29,2.07.87,3.56,1.86,3.56,1.17,0,3.32-1.69,4.63-6.47a35.59,35.59,0,0,0,1.5-8.25c0-.75.57-.84,1.41-.19a4.73,4.73,0,0,0,2.43,1.13c.66,0,1.13.56.76,2.34a76.61,76.61,0,0,0-1.31,8.34c-.1,1.88,1.31,3.84,3.37.66s2.9-9.38,3.56-11.44,1.22-2.06,1.78-1.59,0,1,.56,1.4S197.29,178,197.29,179.54Zm-97.57.6c-.7-.35-1.74,0-1.74,2v4.55c0,1.09,1.87,4.26,2.09.51C100.36,182.45,100.29,180.42,99.72,180.14Zm43.12-2.53c-1.46-.64-2.05.56-2.69,4.7s.25,6.06,1,5.89,1.36-1.41,1.32-2.95S142.84,177.61,142.84,177.61Zm24.43,6.76a14.4,14.4,0,0,0,2.77-4.76c.54-2.22.39-4.05-.28-4.48s-2.23.91-2.47,6.27C167.24,182.46,167.24,183.45,167.27,184.37Zm8.34,0a14.4,14.4,0,0,0,2.77-4.76c.54-2.22.39-4.05-.28-4.48s-2.22.91-2.47,6.27C175.58,182.46,175.58,183.45,175.61,184.37Zm18.3,1.26a31.83,31.83,0,0,1-2.43,4.13s.93,2.25,2.34,1.4S195,187.6,193.91,185.63Z"/><path class="cls-1" d="M275.11,295.81a4.28,4.28,0,1,1-4.24-4.16A4.19,4.19,0,0,1,275.11,295.81Zm-7.49,0a3.24,3.24,0,0,0,3.25,3.33,3.18,3.18,0,0,0,3.17-3.3,3.21,3.21,0,1,0-6.42,0Zm2.57,2.16h-1v-4.16a11.38,11.38,0,0,1,1.6-.13,2.22,2.22,0,0,1,1.42.33,1.05,1.05,0,0,1,.44.89,1.07,1.07,0,0,1-.87,1v.05c.41.13.61.46.74,1a4.15,4.15,0,0,0,.3,1h-1a3,3,0,0,1-.33-1c-.08-.44-.33-.64-.87-.64h-.45Zm0-2.33h.46c.53,0,1-.18,1-.61s-.27-.63-.88-.63a3,3,0,0,0-.54,0Z"/></g></g></svg>