<svg xmlns="http://www.w3.org/2000/svg" width="20" height="20"><path d="M 10 20 C 4.477 20 0 15.523 0 10 C 0 4.477 4.477 0 10 0 C 15.523 0 20 4.477 20 10 C 19.993 15.52 15.52 19.993 10 20 Z M 18.434 11.369 C 16.707 10.866 14.893 10.74 13.113 11 C 13.839 12.979 14.394 15.016 14.772 17.09 C 16.73 15.769 18.055 13.697 18.433 11.365 Z M 13.334 17.876 C 12.934 15.665 12.324 13.496 11.514 11.4 L 11.458 11.419 C 8.631 12.287 6.238 14.193 4.758 16.753 C 7.201 18.658 10.485 19.088 13.337 17.877 Z M 3.654 15.724 C 5.265 13.113 7.713 11.126 10.6 10.087 C 10.711 10.051 10.824 10.018 10.937 9.987 C 10.72 9.497 10.489 9.014 10.244 8.538 C 7.389 9.355 4.433 9.763 1.463 9.752 L 1.463 10.013 C 1.463 12.124 2.247 14.159 3.663 15.724 Z M 1.639 8.264 C 4.306 8.249 6.96 7.899 9.539 7.223 C 8.573 5.521 7.516 3.872 6.372 2.283 C 3.945 3.426 2.194 5.64 1.639 8.264 Z M 8 1.709 C 9.17 3.305 10.234 4.975 11.187 6.709 C 12.944 6.131 14.499 5.06 15.664 3.623 C 13.577 1.769 10.714 1.054 8 1.708 Z M 16.614 4.609 C 15.344 6.127 13.701 7.288 11.845 7.977 C 12.045 8.384 12.234 8.798 12.412 9.214 C 12.475 9.361 12.537 9.508 12.596 9.655 C 14.581 9.449 16.586 9.541 18.544 9.93 C 18.526 7.988 17.845 6.111 16.612 4.611 Z" fill="hsl(0, 0%, 0%)"></path></svg>