<svg xmlns="http://www.w3.org/2000/svg" width="19" height="14"><g transform="translate(-0 0.001)"><path d="M 10.67 9.841 C 9.948 10.274 9.052 10.274 8.33 9.841 L 0 4.841 L 0 12.287 C 0 13.23 0.752 13.995 1.679 13.995 L 17.322 13.995 C 18.249 13.995 19.001 13.23 19.001 12.287 L 19.001 4.841 Z" fill="#000000"></path><path d="M 8.965 8.744 C 9.295 8.942 9.704 8.942 10.034 8.744 L 18.999 3.362 L 18.999 1.708 C 18.999 1.255 18.822 0.82 18.507 0.5 C 18.192 0.18 17.766 -0 17.32 0 L 1.679 0 C 1.234 -0 0.807 0.18 0.492 0.5 C 0.177 0.82 -0 1.255 0 1.708 L 0 3.362 Z" fill="#000000"></path></g></svg>