<svg xmlns="http://www.w3.org/2000/svg" viewBox="0 0 786.23 248.47"><defs><style>.cls-1{fill:#fff;}</style></defs><title>Asset 2</title><g id="Layer_2" data-name="Layer 2"><g id="Layer_1-2" data-name="Layer 1"><path class="cls-1" d="M.43,143.7V80.18H12.06v51.89H63.87V143.7Z"/><path class="cls-1" d="M125.45,80.27h38.86A12,12,0,0,1,173,83.83a11.75,11.75,0,0,1,3.61,8.68V143.7H164.92V122.38H124.83V143.7H113.21V92.51a12.16,12.16,0,0,1,12.24-12.24Zm-.62,30.48h40.09V92.51a.54.54,0,0,0-.61-.61H125.45a.54.54,0,0,0-.62.61Z"/><path class="cls-1" d="M230.3,91.9V80.27h63.43V93l-46.52,39.12h46.52V143.7H230.3V131L276.81,91.9Z"/><path class="cls-1" d="M552.85,92.6v17.09a12.34,12.34,0,0,1-12.34,12.25h-3.44l15.78,18.77v3H540.16l-18.33-21.76H501V143.7H489.41V80.35h51.1A12.36,12.36,0,0,1,552.85,92.6Zm-51.19,17.71h38.85a.54.54,0,0,0,.61-.62V92.6a.54.54,0,0,0-.61-.62H501.66a.55.55,0,0,0-.62.62v17.09A.55.55,0,0,0,501.66,110.31Z"/><path class="cls-1" d="M657.77,131.46V80.27h11.72v51.19a11.73,11.73,0,0,1-3.61,8.67,11.86,11.86,0,0,1-8.63,3.57H618.31a12.19,12.19,0,0,1-12.25-12.24V80.27h11.63v51.19a.54.54,0,0,0,.62.61h38.94C657.6,132.07,657.77,131.87,657.77,131.46Z"/><path class="cls-1" d="M786.23,92.51v4.85H774.51V92.51c0-.41-.17-.61-.53-.61H735a.54.54,0,0,0-.62.61v13a.55.55,0,0,0,.62.62H774a12.26,12.26,0,0,1,12.25,12.24v13.05A12.26,12.26,0,0,1,774,143.7H735a12.19,12.19,0,0,1-12.25-12.24v-4.85h11.63v4.85a.54.54,0,0,0,.62.61H774c.36,0,.53-.2.53-.61V118.41c0-.4-.17-.61-.53-.61H735a12.19,12.19,0,0,1-12.25-12.25v-13A12.17,12.17,0,0,1,735,80.27H774a12.24,12.24,0,0,1,12.25,12.24Z"/><polygon class="cls-1" points="409.45 92.1 368.08 92.1 371.88 85.38 374.19 81.3 405.68 25.31 391.38 0 350.79 71.78 339.55 91.66 339.53 91.66 326.17 115.3 422.56 115.3 409.45 92.1"/><polygon class="cls-1" points="472.78 143.59 432.14 71.71 408.72 30.29 394.63 55.33 411.58 85.33 431.4 120.36 352.15 120.36 352.16 120.35 323.35 120.35 310.2 143.59 472.78 143.59"/><path class="cls-1" d="M.1,247.17V198H16.9c1.37,0,2.71,0,4,.11a28.07,28.07,0,0,1,3.9.47,20.44,20.44,0,0,1,3.72,1.13,17.08,17.08,0,0,1,3.51,2,14.63,14.63,0,0,1,4,4.34,25.43,25.43,0,0,1,2.5,5.4,31.84,31.84,0,0,1,1.3,5.73,42.15,42.15,0,0,1,.37,5.36,40.27,40.27,0,0,1-.31,5,32.6,32.6,0,0,1-1,4.95,25.91,25.91,0,0,1-1.81,4.65,18.08,18.08,0,0,1-2.84,4.06,15,15,0,0,1-3.72,3.07,19.37,19.37,0,0,1-4.24,1.82,25.8,25.8,0,0,1-4.6.88q-2.4.24-4.86.24Zm4.64-4H15.88a45.93,45.93,0,0,0,5.91-.37A16.94,16.94,0,0,0,27.42,241a11,11,0,0,0,4-3.34A18.18,18.18,0,0,0,33.94,233a24.42,24.42,0,0,0,1.3-5.23,38.55,38.55,0,0,0,.38-5.26,46,46,0,0,0-.34-5.43,22.06,22.06,0,0,0-1.3-5.25,17.44,17.44,0,0,0-2.6-4.58,12.93,12.93,0,0,0-4.23-3.45,14.43,14.43,0,0,0-5.2-1.5,53,53,0,0,0-6.07-.35H4.74Z"/><path class="cls-1" d="M83.57,247.17V198h32.71v4H88.21v17.76h25.33v4H88.21v19.53H117v4Z"/><path class="cls-1" d="M161.36,232.49a14.44,14.44,0,0,0,1.47,5.56,10.84,10.84,0,0,0,3.07,3.72,12.08,12.08,0,0,0,4.34,2.09,20.65,20.65,0,0,0,5.26.65,17.65,17.65,0,0,0,5.66-.82,10.79,10.79,0,0,0,3.9-2.22,8.74,8.74,0,0,0,2.22-3.25,10.61,10.61,0,0,0,.71-3.89,7.7,7.7,0,0,0-1.29-4.64,10.09,10.09,0,0,0-3.38-2.91,21,21,0,0,0-4.79-1.81c-1.79-.45-3.63-.9-5.53-1.33s-3.73-.94-5.53-1.53a17.42,17.42,0,0,1-4.78-2.4,11.49,11.49,0,0,1-3.38-3.86,12.55,12.55,0,0,1,2.9-15.12,15.26,15.26,0,0,1,5.23-2.94,21.92,21.92,0,0,1,7.24-1.09,20.85,20.85,0,0,1,7.27,1.15,14.65,14.65,0,0,1,5.16,3.18,13.52,13.52,0,0,1,3.08,4.68,16,16,0,0,1,1,5.67h-4.45a11.08,11.08,0,0,0-1-4.85,9.29,9.29,0,0,0-2.7-3.35,11.64,11.64,0,0,0-3.9-1.91,16.51,16.51,0,0,0-4.5-.61,15.88,15.88,0,0,0-6,1,10.47,10.47,0,0,0-3.86,2.56,8.71,8.71,0,0,0-2,3.48,8.29,8.29,0,0,0-.2,3.83,6.67,6.67,0,0,0,1.91,3.82,12.06,12.06,0,0,0,3.69,2.36,28.58,28.58,0,0,0,4.81,1.5q2.63.59,5.36,1.23a54.09,54.09,0,0,1,5.29,1.54,16.27,16.27,0,0,1,4.55,2.39,10.92,10.92,0,0,1,3.17,3.86,12.93,12.93,0,0,1,1.2,5.91q0,6.83-4.71,10.58t-13.25,3.76a24.54,24.54,0,0,1-7.11-1,15.62,15.62,0,0,1-5.66-3,13.73,13.73,0,0,1-3.73-5,17.11,17.11,0,0,1-1.33-7Z"/><path class="cls-1" d="M237,247.17V198h4.65v49.18Z"/><path class="cls-1" d="M309.37,225.73v-4h21v25.41h-4v-8.4a23.19,23.19,0,0,1-3,4,16.53,16.53,0,0,1-3.86,3.07,18.85,18.85,0,0,1-5.05,1.95,28.49,28.49,0,0,1-6.49.68,22.16,22.16,0,0,1-8.61-1.64,18.46,18.46,0,0,1-6.83-4.88,23,23,0,0,1-4.47-8.17,37,37,0,0,1-1.6-11.47,35.91,35.91,0,0,1,1.36-10.08,22.56,22.56,0,0,1,4.2-8.12,19.85,19.85,0,0,1,7.11-5.43,23.71,23.71,0,0,1,10.07-2,26.9,26.9,0,0,1,7.27,1,19.44,19.44,0,0,1,6.08,2.91,17.39,17.39,0,0,1,4.55,4.84,20.74,20.74,0,0,1,2.66,6.87h-4.78a14.44,14.44,0,0,0-2.09-4.92,14.2,14.2,0,0,0-3.51-3.65,16,16,0,0,0-4.58-2.26,17.72,17.72,0,0,0-5.26-.78,18.87,18.87,0,0,0-8.33,1.7,15.26,15.26,0,0,0-5.74,4.82,20.91,20.91,0,0,0-3.31,7.45,39.87,39.87,0,0,0-1.06,9.52,25.34,25.34,0,0,0,1.19,7.79,19.79,19.79,0,0,0,3.49,6.49A16.43,16.43,0,0,0,309,244.51a20.53,20.53,0,0,0,4.1-.44,16.54,16.54,0,0,0,4.1-1.48,15.49,15.49,0,0,0,3.68-2.66,14.92,14.92,0,0,0,2.94-4,17.49,17.49,0,0,0,1.6-4.85,35.79,35.79,0,0,0,.52-5.32Z"/><path class="cls-1" d="M380.4,204.28h-.14v42.89h-4.64V198h5.26l28.41,43h.13V198h4.65v49.18h-5.4Z"/><path class="cls-1" d="M507.91,198H543.7v4H528.13v45.22h-4.64V202H507.91Z"/><path class="cls-1" d="M584.48,247.17V198H617.2v4H589.13v17.76h25.34v4H589.13v19.53h28.75v4Z"/><path class="cls-1" d="M655.86,247.17,675.18,198h5.26l18.85,49.18h-4.77l-5.68-15.44h-22.4l-5.8,15.44ZM668,227.77h19.26L677.64,202Z"/><path class="cls-1" d="M739.87,247.17V198H747l16.12,43.37h.13L779.07,198h7v49.18h-4.64V203.32h-.13L765.2,247.17h-4.37l-16.19-43.85h-.13v43.85Z"/><rect class="cls-1" y="168.66" width="786.21" height="5"/></g></g></svg>