<svg xmlns="http://www.w3.org/2000/svg" width="20" height="19"><g><path d="M 7.143 5.846 L 11.097 5.846 L 11.097 7.919 L 11.153 7.919 C 11.997 6.562 13.486 5.771 15.056 5.846 C 19.229 5.846 20 8.506 20 11.96 L 20 19 L 15.879 19 L 15.879 12.759 C 15.879 11.27 15.849 9.356 13.735 9.356 C 11.589 9.356 11.261 10.977 11.261 12.652 L 11.261 19.001 L 7.143 19.001 Z" fill="#000000"></path><path d="M 0 5.846 L 4.286 5.846 L 4.286 19 L 0 19 Z" fill="#000000"></path><path d="M 4.286 2.193 C 4.286 3.403 3.327 4.385 2.143 4.385 C 0.959 4.385 0 3.403 0 2.193 C 0 0.982 0.959 0 2.143 0 C 3.327 0 4.286 0.982 4.286 2.193 Z" fill="#000000"></path></g></svg>