<svg xmlns="http://www.w3.org/2000/svg" viewBox="0 0 1226.35 853.07"><defs><style>.cls-1{fill:#fff;}</style></defs><title>Asset 4</title><g id="Layer_2" data-name="Layer 2"><g id="Layer_1-2" data-name="Layer 1"><path class="cls-1" d="M1171.23,458.48c-55.11-63.89-146.56-102.72-270.57-116.5-111.49-12.53-166.61-43.85-166.61-96.46,0-55.11,83.93-73.91,156.59-73.91,70.14,0,120.25,21.3,145.3,56.38,17.11,22.44,18.7,53.05,18.8,61.57h171.6c-.14-15.27-3.55-89.53-45.09-154.27C1141.17,73.91,1058.49,0,890.64,0,788,0,708.07,21.83,650.7,64.15A422.76,422.76,0,0,0,425.9,0C191.27,0,0,191.27,0,427.17c0,234.62,191.27,425.9,425.9,425.9,87.7,0,168.38-26.29,236.27-70.85,23.66,18.49,49.43,34.87,79.4,47,42.59,16.29,91.44,23.81,145.31,23.81,68.89,0,126.52-7.52,174.12-23.81,46.35-16.28,83.93-40.08,111.49-71.4,53.86-60.13,53.86-126.52,53.86-152.82C1226.35,551.17,1207.56,501.07,1171.23,458.48Zm-284.35,223q-101.48,0-139-56.37c-17.61-26.42-19.75-65.42-20-74.48H556.06a291.66,291.66,0,0,0,7.25,82.53A247.32,247.32,0,0,1,425.9,674.55c-66.31,0-127.52-25.51-174.7-72.69s-72.68-108.38-72.68-174.69,25.5-128.79,72.68-176,108.39-72.68,174.7-72.68A247.62,247.62,0,0,1,559,217.09a271.65,271.65,0,0,0-2.86,39.71c0,55.11,18.78,104,56.36,145.31,26.31,28.81,61.38,52.61,104,70.14,45.1,18.8,101.47,32.57,165.36,40.09,104,11.27,167.85,42.59,167.85,92.7C1049.72,652.64,999.62,681.45,886.88,681.45Z"/></g></g></svg>