<svg xmlns="http://www.w3.org/2000/svg" width="20" height="16"><path d="M 20.001 1.894 C 19.252 2.221 18.457 2.435 17.644 2.53 C 18.499 2.024 19.139 1.23 19.444 0.295 C 18.639 0.767 17.757 1.1 16.838 1.28 C 15.566 -0.045 13.55 -0.368 11.916 0.492 C 10.283 1.352 9.437 3.182 9.85 4.96 C 6.551 4.797 3.477 3.263 1.393 0.739 C 0.304 2.585 0.86 4.947 2.663 6.133 C 2.01 6.113 1.372 5.94 0.801 5.627 L 0.801 5.678 C 0.801 7.601 2.178 9.257 4.092 9.639 C 3.488 9.8 2.854 9.824 2.239 9.708 C 2.776 11.353 4.317 12.48 6.072 12.512 C 4.617 13.636 2.821 14.245 0.972 14.241 C 0.647 14.241 0.323 14.222 0.001 14.185 C 1.877 15.372 4.061 16.002 6.291 16 C 9.394 16.021 12.375 14.817 14.569 12.657 C 16.763 10.497 17.986 7.561 17.964 4.507 C 17.964 4.332 17.96 4.157 17.952 3.984 C 18.756 3.413 19.45 2.705 20.001 1.894 Z" fill="#000000"></path></svg>